<svg xmlns="http://www.w3.org/2000/svg" xmlns:xlink="http://www.w3.org/1999/xlink" aria-hidden="true" style="position:absolute;width:0;height:0;overflow:hidden">
  <defs>
    <path id="reuse-0" fill="#f4f4fd" d="M1.143.143h73.143a1 1 0 0 1 1 1v29.714a1 1 0 0 1-1 1H1.143a1 1 0 0 1-1-1V1.143a1 1 0 0 1 1-1z" style="fill:var(--color1, #f4f4fd)"/>
  </defs>
  <defs>
    <symbol id="icon-link" viewBox="0 0 32 32">
      <path fill="#f4f4fd" d="M31.992 32v-.001H32V20.263c0-5.741-1.236-10.164-7.948-10.164-3.227 0-5.392 1.771-6.276 3.449h-.093v-2.913h-6.364v21.364h6.627V21.42c0-2.785.528-5.479 3.977-5.479 3.399 0 3.449 3.179 3.449 5.657v10.401h6.62zM.528 10.636h6.635V32H.528V10.636zM3.843 0C1.722 0 0 1.721 0 3.843s1.721 3.879 3.843 3.879c2.121 0 3.843-1.757 3.843-3.879A3.846 3.846 0 0 0 3.843 0z" style="fill:var(--color1, #f4f4fd)"/>
    </symbol>
    <symbol id="icon-face" viewBox="0 0 32 32">
      <path fill="#f4f4fd" d="M21.329 5.313h2.921V.225C23.746.156 22.013 0 19.994 0c-4.212 0-7.097 2.649-7.097 7.519V12H8.249v5.688h4.648V32h5.699V17.689h4.46l.708-5.688h-5.169V8.082c.001-1.644.444-2.769 2.735-2.769z" style="fill:var(--color1, #f4f4fd)"/>
    </symbol>
    <symbol id="icon-twit" viewBox="0 0 32 32">
      <path fill="#f4f4fd" d="M32 6.078c-1.19.522-2.458.868-3.78 1.036a6.523 6.523 0 0 0 2.886-3.626 13.11 13.11 0 0 1-4.16 1.588A6.574 6.574 0 0 0 22.154 3c-3.632 0-6.556 2.948-6.556 6.562 0 .52.044 1.02.152 1.496-5.454-.266-10.28-2.88-13.522-6.862a6.605 6.605 0 0 0-.898 3.316 6.57 6.57 0 0 0 2.914 5.452 6.479 6.479 0 0 1-2.964-.808v.072c0 3.188 2.274 5.836 5.256 6.446a6.548 6.548 0 0 1-1.72.216 5.8 5.8 0 0 1-1.242-.112c.85 2.598 3.262 4.508 6.13 4.57a13.182 13.182 0 0 1-8.134 2.798c-.538 0-1.054-.024-1.57-.09A18.469 18.469 0 0 0 10.064 29c12.072 0 18.672-10 18.672-18.668 0-.29-.01-.57-.024-.848A13.087 13.087 0 0 0 32 6.078z" style="fill:var(--color1, #f4f4fd)"/>
    </symbol>
    <symbol id="icon-insta" viewBox="0 0 32 32">
      <path fill="#f4f4fd" d="M31.969 9.408c-.075-1.7-.35-2.869-.744-3.882a7.803 7.803 0 0 0-1.85-2.838A7.867 7.867 0 0 0 26.543.844C25.524.45 24.361.175 22.661.1 20.948.019 20.404 0 16.06 0s-4.888.019-6.595.094c-1.7.075-2.869.35-3.882.744a7.803 7.803 0 0 0-2.838 1.85A7.867 7.867 0 0 0 .901 5.52C.507 6.539.232 7.702.157 9.402c-.081 1.713-.1 2.257-.1 6.601s.019 4.888.094 6.595c.075 1.7.35 2.869.744 3.882a7.895 7.895 0 0 0 1.85 2.838 7.867 7.867 0 0 0 2.832 1.844c1.019.394 2.182.669 3.882.744 1.706.075 2.25.094 6.595.094s4.888-.019 6.595-.094c1.7-.075 2.869-.35 3.882-.744a8.181 8.181 0 0 0 4.682-4.682c.394-1.019.669-2.182.744-3.882.075-1.707.094-2.25.094-6.595s-.006-4.888-.081-6.595zm-2.882 13.065c-.069 1.563-.331 2.407-.55 2.969a5.31 5.31 0 0 1-3.038 3.038c-.563.219-1.413.481-2.969.55-1.688.075-2.194.094-6.464.094s-4.782-.019-6.464-.094c-1.563-.069-2.407-.331-2.969-.55a4.926 4.926 0 0 1-1.838-1.194 4.974 4.974 0 0 1-1.194-1.838c-.219-.563-.481-1.413-.55-2.969-.075-1.688-.094-2.194-.094-6.464s.019-4.782.094-6.464c.069-1.563.331-2.407.55-2.969a4.868 4.868 0 0 1 1.2-1.838A4.974 4.974 0 0 1 6.639 3.55c.563-.219 1.413-.481 2.969-.55 1.688-.075 2.194-.094 6.464-.094 4.276 0 4.782.019 6.464.094 1.563.069 2.407.331 2.969.55a4.914 4.914 0 0 1 1.838 1.194 4.974 4.974 0 0 1 1.194 1.838c.219.563.481 1.413.55 2.969.075 1.688.094 2.194.094 6.464s-.019 4.77-.094 6.458z" style="fill:var(--color1, #f4f4fd)"/>
      <path fill="#f4f4fd" d="M16.059 7.783c-4.538 0-8.22 3.682-8.22 8.22s3.682 8.22 8.22 8.22 8.22-3.682 8.22-8.22-3.682-8.22-8.22-8.22zm0 13.552a5.333 5.333 0 0 1 0-10.664 5.333 5.333 0 0 1 0 10.664zM26.524 7.458a1.919 1.919 0 1 1-3.838 0 1.919 1.919 0 0 1 3.838 0z" style="fill:var(--color1, #f4f4fd)"/>
    </symbol>
    <symbol id="icon-іcon-on" viewBox="0 0 73 32">
      <path fill="#f4f4fd" d="M2.133.133H70.4c.515 0 .933.418.933.933v27.733a.933.933 0 0 1-.933.933H2.133a.933.933 0 0 1-.933-.933V1.066c0-.515.418-.933.933-.933z" style="fill:var(--color1, #f4f4fd)"/>
      <path fill="#2e2f42" d="m44.146 18.185-4.503-4.536.5-2.461c.129.05.266.077.405.077h.017a1.151 1.151 0 1 0-1.082-.757l-.003-.008-2.645.323-4.315-4.337a.28.28 0 0 0-.201-.085.285.285 0 0 0-.199.083l-.807.802a.285.285 0 0 0 0 .402l.434.44a7.867 7.867 0 0 0-.968 3.807c0 2.19.883 4.173 2.313 5.614h-.001a.273.273 0 0 0 .078.052 1.633 1.633 0 0 0-.028.291v3.3h-3.413a1.424 1.424 0 0 0-1.422 1.422v.569c0 .157.127.285.285.285h13.085a.284.284 0 0 0 .284-.285v-.569a1.424 1.424 0 0 0-1.422-1.422h-3.413V19.73a7.894 7.894 0 0 0 5.422-.801l-.041.021.436.439a.281.281 0 0 0 .4.002l.807-.802a.285.285 0 0 0 0-.402zm-3.997-8.461a.569.569 0 1 1 .401.973h-.002a.57.57 0 0 1-.398-.972h-.001zm-.669 1.87-.319 1.571-.627-.63.946-.941zm-.323-.481-1.024 1.018-.792-.797 1.816-.221zm1.378 10.647c.471 0 .853.382.853.853v.285H28.873v-.285c0-.471.382-.853.853-.853h10.809zm-3.982-1.138v.569h-2.845v-.569h2.845zm-2.844-.569v-2.162c0-.69.638-1.251 1.422-1.251s1.422.562 1.422 1.251v2.162h-2.845zm3.413-.904v-1.257c0-1.004-.893-1.82-1.991-1.82H35.1c-.721 0-1.355.377-1.714.944l-.005.008a7.373 7.373 0 0 1-2.033-5.093 7.36 7.36 0 0 1 .837-3.421l-.019.041 9.921 9.978a7.27 7.27 0 0 1-3.342.801 7.385 7.385 0 0 1-1.673-.191l.05.01zm6.021-.365-.401-.403-10.83-10.894.402-.401 4.232 4.256c.002 0 .003.003.005.005l6.994 7.035-.404.401z" style="fill:var(--color2, #2e2f42)"/>
      <path fill="#4d5ae5" d="M35.134 17.209h-.004a.853.853 0 0 0-.001 1.706h.003a.853.853 0 0 0 .001-1.706zm.199 1.055a.285.285 0 1 1-.203-.487.285.285 0 0 1 .199.487h.003z" style="fill:var(--color3, #4d5ae5)"/>
    </symbol>
    <symbol id="icon-іcon-to" viewBox="0 0 75 32">
      <use xlink:href="#reuse-0" style="fill:var(--color1, #f4f4fd)"/>
      <path fill="#2e2f42" d="M46.455 15.601c-.001-4.83-3.917-8.744-8.747-8.743a8.746 8.746 0 0 0-2.72 17.059l.062.017a.394.394 0 0 0 .303-.037.365.365 0 0 0 .162-.204l2.209-7a1.093 1.093 0 0 0-.006-2.186h-.006a1.078 1.078 0 0 0-.475.112l.006-.003-2.918-2.918a.363.363 0 1 0-.515.515l2.916 2.919a1.071 1.071 0 0 0 .304 1.318l.002.002-2.104 6.67c-4.159-1.532-6.288-6.145-4.756-10.304s6.145-6.288 10.304-4.756a8.024 8.024 0 0 1 4.756 10.304 8.077 8.077 0 0 1-4.214 4.536l-.05.02-.227-1.071a.365.365 0 0 0-.599-.196l-2.193 1.957a.364.364 0 0 0 .13.619l.003.001 2.799.893a.364.364 0 0 0 .468-.424v.002l-.223-1.051c3.159-1.357 5.331-4.441 5.331-8.032v-.02.001zm-8.745-.365a.365.365 0 0 1 0 .73.365.365 0 0 1 0-.73zm1.2 8.494 1.248-1.113.345 1.623-1.593-.51z" style="fill:var(--color2, #2e2f42)"/>
      <path fill="#4d5ae5" d="M37.345 8.677v.729a.364.364 0 0 0 .728 0v-.729a.365.365 0 0 0-.728 0v.001zm-6.559 6.559a.364.364 0 0 0 0 .728h.729a.364.364 0 0 0 0-.728h-.729zm13.847.729a.364.364 0 0 0 0-.728h-.729a.364.364 0 0 0 0 .728h.729z" style="fill:var(--color3, #4d5ae5)"/>
    </symbol>
    <symbol id="icon-іcon-tr" viewBox="0 0 75 32">
      <use xlink:href="#reuse-0" style="fill:var(--color1, #f4f4fd)"/>
      <path fill="#4d5ae5" d="M37.1 15.409h.609v2.741H37.1v-2.741zm2.437 1.218h.609v1.523h-.609v-1.523zm-4.874.914h.609v.609h-.609v-.609zm-1.827-.305h.609v.914h-.609v-.914z" style="fill:var(--color3, #4d5ae5)"/>
      <path fill="#2e2f42" d="M29.485 23.023h14.621a.914.914 0 0 0 .914-.914V20.89a.914.914 0 0 0-.914-.914h-.305V12.38l1.73-1.639a.92.92 0 1 0-.424-.43l-.002-.006-1.304 1.236v-.703a.914.914 0 0 0-.914-.914H30.703a.914.914 0 0 0-.914.914v9.138h-.305a.914.914 0 0 0-.914.914v1.219c0 .505.409.914.914.914zM45.934 9.621a.305.305 0 1 1 0 .61.305.305 0 1 1 0-.61zm-15.535 1.218c0-.169.136-.305.305-.305h12.184c.168 0 .305.137.305.305v1.279l-.609.579v-1.249a.305.305 0 0 0-.305-.305H31.313a.305.305 0 0 0-.305.305v7.615c0 .169.136.305.305.305h10.966a.306.306 0 0 0 .305-.305v-5.528l.609-.577v7.019H30.4v-9.138zm2.742 3.96h-.003a.914.914 0 1 0 .635 1.571l1.059.531a.306.306 0 0 0 .364-.07l2.251-2.532 2.213 1.658a.304.304 0 0 0 .392-.023l1.923-1.821v4.646H31.618v-7.006h10.357v1.52l-2.155 2.041-2.231-1.673a.303.303 0 0 0-.41.041l-2.282 2.567-.853-.427c.006-.037.01-.073.012-.111a.914.914 0 0 0-.914-.914zm.304.914v.009a.305.305 0 1 1-.61 0v-.01a.306.306 0 0 1 .61-.001zm1.828 4.874h3.046v.305a.305.305 0 0 1-.305.305h-2.437a.306.306 0 0 1-.305-.305v-.305zm-6.092.304c0-.168.137-.305.305-.305h5.178v.305c0 .505.409.914.914.914h2.437a.914.914 0 0 0 .914-.914v-.305h5.178c.168 0 .305.136.305.305v1.219a.306.306 0 0 1-.305.305H29.486a.306.306 0 0 1-.305-.305v-1.219z" style="fill:var(--color2, #2e2f42)"/>
    </symbol>
    <symbol id="icon-іcon-fr" viewBox="0 0 75 32">
      <use xlink:href="#reuse-0" style="fill:var(--color1, #f4f4fd)"/>
      <path fill="#4d5ae5" d="M46.842 9.442a.307.307 0 0 0-.244-.207h-.002l-1.091-.159-.489-.989c-.103-.209-.444-.209-.547 0l-.489.989-1.092.159a.307.307 0 0 0-.246.205l-.001.002a.308.308 0 0 0 .077.313l.79.77-.187 1.087a.306.306 0 0 0 .442.321l.977-.513.977.513a.301.301 0 0 0 .322-.024l-.001.001a.304.304 0 0 0 .121-.298l-.186-1.087.79-.77a.304.304 0 0 0 .077-.314l.001.002zm-1.407.759a.304.304 0 0 0-.087.27l.109.637-.572-.3a.301.301 0 0 0-.286.001l.002-.001-.572.3.109-.637a.303.303 0 0 0-.088-.27l-.463-.451.639-.093a.303.303 0 0 0 .229-.167l.286-.579.286.579c.045.09.13.152.23.167l.639.093-.462.451zm-1.93 8.383h-.609v.61h.609v-.61zm0 1.219h-.609v.61h.609v-.61zm.609-.609h-.609v.609h.609v-.609zm-1.219 0h-.61v.609h.61v-.609zm-1.524 2.743h-.609v.609h.609v-.609zm0 1.219h-.609v.609h.609v-.609zm.61-.61h-.61v.61h.61v-.61zm-1.219 0h-.61v.61h.61v-.61zm-3.048-1.829h-.609v.61h.609v-.61zm0 1.22h-.609v.609h.609v-.609zm.61-.61h-.609v.61h.609v-.61zm-1.219 0h-.61v.61h.61v-.61zm-5.181-10.972h-.609v.609h.609v-.609zm0 1.219h-.609v.61h.609v-.609zm.609-.609h-.609v.61h.609v-.61zm-1.219 0h-.61v.61h.61v-.61z" style="fill:var(--color3, #4d5ae5)"/>
      <path fill="#2e2f42" d="M42.694 14.948a1.013 1.013 0 0 0-.674-.402l-.005-.001a1.01 1.01 0 0 0-.768.204l.002-.002-.715.548-1.085.81-.776-.309a3.966 3.966 0 0 0 2.351-3.611c0-2.185-1.784-3.962-3.978-3.962S33.068 10 33.068 12.185c0 .792.237 1.528.64 2.148l-1.582-.014c-.005 0-.009.002-.013.003a.342.342 0 0 0-.091.018l.002-.001-.022.007-.011.004-1.848.912-1.082.521a.188.188 0 0 0-.037.021l.001-.001a1.017 1.017 0 0 0 .254 1.818l.007.002a1.008 1.008 0 0 0 .793-.076l-.005.003.793-.422 1.294-.668.775-.004-3.875 3.857a.939.939 0 0 0-.28.67v.003a.953.953 0 0 0 .952.951h.002a.959.959 0 0 0 .675-.277l.751-.748.995-.743.515.513-1.773 1.765a.94.94 0 0 0-.28.671v.003a.952.952 0 0 0 .954.95h.002c.262 0 .5-.106.672-.277l2.565-2.555c.004-.004.009-.005.013-.009l2.952-3.233 1.983.282a.303.303 0 0 0 .152-.019l-.002.001.028-.013c.011-.005.023-.009.033-.015l1.836-1.219c.007-.005.01-.012.017-.017s.016-.008.023-.014l.727-.681a1.017 1.017 0 0 0 .119-1.353l.002.003zm-12.905 2.063a.41.41 0 0 1-.441-.689l.001-.001.751-.361.181.528.076.222-.567.301zm1.998-1.044-.885.457-.146-.427-.105-.307 1.158-.571-.023.848zm8.628-3.783c0 .525-.125 1.02-.342 1.463l-2.389-1.085a1.066 1.066 0 0 0-.447-.791l-.003-.002.837-2.777a3.358 3.358 0 0 1 2.345 3.193zm-6.736 0a3.363 3.363 0 0 1 3.794-3.322l-.818 2.716c-.011 0-.021-.003-.033-.003h-.001c-.59 0-1.068.477-1.069 1.066a1.07 1.07 0 0 0 1.069 1.067h.001c.397 0 .74-.219.925-.54l2.207 1.003a3.366 3.366 0 0 1-2.707 1.366 3.364 3.364 0 0 1-3.368-3.353zm3.404.457a.46.46 0 0 1-.461.457h-.001a.459.459 0 0 1-.459-.457c0-.252.207-.457.461-.457s.461.205.461.457zm-7.103 8.586a.346.346 0 0 1-.488 0 .34.34 0 0 1 0-.482l.55-.548.486.484-.548.546zm1.836 2.133a.347.347 0 0 1-.488.001.338.338 0 0 1 0-.482l.55-.548.487.484-.548.546zm1.99-1.982-.001.001-1.009 1.006-.487-.484 1.008-1.003.001-.001c.023-.023.037-.05.051-.077.004-.008.012-.015.015-.023.009-.024.011-.049.015-.074.002-.014.008-.027.008-.041 0-.02-.007-.04-.012-.06-.004-.018-.004-.037-.011-.055a.309.309 0 0 0-.052-.079c-.006-.007-.008-.015-.014-.022l-.001-.001-.918-.914c-.01-.01-.022-.014-.033-.022a.308.308 0 0 0-.048-.032l-.002-.001a.255.255 0 0 0-.051-.018h-.002a.315.315 0 0 0-.058-.011H32.192a.315.315 0 0 0-.044.003h.002a.31.31 0 0 0-.062.012l.002-.001a.28.28 0 0 0-.055.026l.001-.001c-.011.006-.024.009-.035.016l-1.013.757-.515-.513 1.371-1.364 2.492 2.451-.53.525zm3.896-4.01c-.009-.001-.017.002-.026.002h-.016a.318.318 0 0 0-.103.017l.002-.001a.293.293 0 0 0-.056.028l.001-.001a.348.348 0 0 0-.048.035c-.007.006-.016.009-.023.017l-2.685 2.941-2.473-2.433 1.619-1.61a.305.305 0 0 0-.216-.521h-.002l-1.268.007.016-.919 1.774.015a3.96 3.96 0 0 0 2.845 1.201h.002a4 4 0 0 0 .731-.07c.023.018.045.037.074.049l1.377.549.087.433.102.506-1.716-.244zm2.31.102-.179-.89.827-.617.541.718-1.189.789zm2.145-1.618-.479.449-.532-.707.475-.364a.416.416 0 0 1 .585.08.407.407 0 0 1-.049.541z" style="fill:var(--color2, #2e2f42)"/>
      <path fill="#2e2f42" d="m36.344 17.454-1.225-1.219a.303.303 0 0 0-.43 0l-1.224 1.219a.305.305 0 0 0 0 .432l1.224 1.219a.303.303 0 0 0 .43 0l1.225-1.219a.306.306 0 0 0 0-.432zm-1.439 1.005-.792-.789.792-.789.793.789-.793.789zm3.475-8.704-.147.592c.041.01.993.258.993 1.228h.609c0-1.153-.952-1.695-1.455-1.82zm1.455 2.429h-.609v.61h.609v-.61z" style="fill:var(--color2, #2e2f42)"/>
    </symbol>
    <symbol id="icon-phone" viewBox="0 0 32 32">
    <path d="M28.864 21.822l-4.524-0.517c-0.124-0.015-0.267-0.024-0.413-0.024-0.98 0-1.867 0.398-2.509 1.041l-3.276 3.276c-5.081-2.621-9.119-6.659-11.671-11.59l-0.070-0.149 3.298-3.296c0.642-0.641 1.038-1.528 1.038-2.507 0-0.146-0.009-0.289-0.026-0.43l0.002 0.017-0.517-4.49c-0.213-1.784-1.717-3.153-3.541-3.153-0.001 0-0.003 0-0.004 0h-3.082c-2.014 0-3.687 1.674-3.562 3.687 0.943 15.212 13.11 27.362 28.305 28.308 2.014 0.123 3.687-1.551 3.687-3.564v-3.082c0-0.006 0-0.013 0-0.020 0-1.811-1.363-3.303-3.12-3.506l-0.016-0.002z"></path>
    </symbol>
    <symbol id="icon-name" viewBox="0 0 32 32">
    <path d="M16 16c2.946 0 5.333-2.388 5.333-5.333s-2.388-5.333-5.333-5.333v0c-2.946 0-5.333 2.388-5.333 5.333s2.388 5.333 5.333 5.333v0zM16 18.667c-3.561 0-10.667 1.787-10.667 5.333v1.333c0 0.732 0.599 1.333 1.333 1.333h18.667c0.732 0 1.333-0.601 1.333-1.333v-1.333c0-3.547-7.108-5.333-10.667-5.333z"></path>
    </symbol>
    <symbol id="icon-e-mail" viewBox="0 0 43 32">
    <path d="M37.333 0h-32c-2.2 0-3.981 1.8-3.981 4l-0.019 24c0 2.2 1.8 4 4 4h32c2.2 0 4-1.8 4-4v-24c0-2.2-1.8-4-4-4zM36.533 8.501l-14.139 8.837c-0.302 0.188-0.668 0.3-1.060 0.3s-0.758-0.112-1.069-0.305l0.009 0.005-14.141-8.84c-0.503-0.301-0.835-0.843-0.835-1.463 0-0.938 0.761-1.699 1.699-1.699 0.349 0 0.673 0.105 0.943 0.285l-0.006-0.004 13.4 8.381 13.4-8.381c0.264-0.176 0.588-0.282 0.937-0.282 0.938 0 1.699 0.761 1.699 1.699 0 0.62-0.332 1.162-0.828 1.459l-0.008 0.004z"></path>
    </symbol>
    <symbol id="icon-x" viewBox="0 0 32 32">
    <path d="M32 3.224l-3.224-3.224-12.776 12.776-12.776-12.776-3.224 3.224 12.776 12.776-12.776 12.776 3.224 3.224 12.776-12.776 12.776 12.776 3.224-3.224-12.776-12.776 12.776-12.776z"></path>
    </symbol>
    <symbol id="icon-cub" viewBox="0 0 32 32">
    <path stroke-width="2" stroke-miterlimit="4" stroke-linecap="butt" stroke-linejoin="miter" d="M4 1h24c1.657 0 3 1.343 3 3v24c0 1.657-1.343 3-3 3h-24c-1.657 0-3-1.343-3-3v-24c0-1.657 1.343-3 3-3z"></path>
    </symbol>
    <symbol id="icon-icon-send" viewBox="0 0 38 32">
    <path fill="#fff" style="fill: var(--color1, #fff)" d="M38.4 0l-38.4 18 12.272 3.788 18.928-14.788-14.397 16.186 0.012 0.004-0.014-0.004v8.814l6.882-6.691 8.718 2.691 6-28z"></path>
    </symbol>
    <symbol id="icon-vector" viewBox="0 0 40 32">
    <path fill="#f4f4fd" style="fill: var(--color1, #f4f4fd)" d="M33.784 1.020c0.659-0.637 1.558-1.030 2.548-1.030 2.007 0 3.637 1.611 3.668 3.611l0 0.003c0.001 0.028 0.001 0.061 0.001 0.095 0 0.965-0.368 1.844-0.972 2.504l0.003-0.003-19.576 24.616c-0.674 0.728-1.635 1.182-2.702 1.182-0.495 0-0.967-0.098-1.398-0.275l0.024 0.009c-0.477-0.197-0.884-0.473-1.224-0.816l-0-0-12.984-13.052c-0.724-0.677-1.175-1.638-1.175-2.705 0-0.501 0.1-0.98 0.28-1.416l-0.009 0.025c0.564-1.367 1.887-2.312 3.43-2.312 0.018 0 0.035 0 0.053 0l-0.003-0c1.038 0.019 1.967 0.467 2.622 1.174l0.002 0.002 10.276 10.328 17.040-21.832c0.032-0.039 0.065-0.074 0.1-0.108l-0.004-0z"></path>
    </symbol>
    <symbol id="icon-icon-menu" viewBox="0 0 36 32">
    <path d="M1.2 4v0c0 1.325 1.075 2.4 2.4 2.4h28.8c1.325 0 2.4-1.075 2.4-2.4s-1.075-2.4-2.4-2.4h-28.8c-1.325 0-2.4 1.075-2.4 2.4zM1.2 16v0c0 1.325 1.075 2.4 2.4 2.4h28.8c1.325 0 2.4-1.075 2.4-2.4s-1.075-2.4-2.4-2.4h-28.8c-1.325 0-2.4 1.075-2.4 2.4zM1.2 28v0c0 1.325 1.075 2.4 2.4 2.4h28.8c1.325 0 2.4-1.075 2.4-2.4s-1.075-2.4-2.4-2.4h-28.8c-1.325 0-2.4 1.075-2.4 2.4z"></path>
    </symbol>
  </defs>
</svg>
